<?xml version="1.0" standalone="no"?>
<!DOCTYPE svg PUBLIC "-//W3C//DTD SVG 20010904//EN"
 "http://www.w3.org/TR/2001/REC-SVG-20010904/DTD/svg10.dtd">
<svg version="1.0" xmlns="http://www.w3.org/2000/svg"
 width="2000.000000pt" height="2000.000000pt" viewBox="0 0 2000.000000 2000.000000"
 preserveAspectRatio="xMidYMid meet">
<metadata>
Created by potrace 1.11, written by Peter Selinger 2001-2013
</metadata>
<g transform="translate(0.000000,2000.000000) scale(0.100000,-0.100000)"
fill="#000000" stroke="none">
<path d="M11843 17711 c-128 -186 -233 -343 -235 -349 -3 -11 519 -662 531
-662 7 0 481 675 481 685 0 6 -498 615 -529 647 -15 16 -32 -7 -248 -321z
m487 -28 c135 -164 244 -299 243 -301 -4 -9 -407 -585 -422 -603 -17 -21 -21
-16 -247 262 -126 155 -235 291 -242 300 -11 16 13 56 200 329 117 170 215
310 218 310 3 0 116 -134 250 -297z"/>
<path d="M2065 17872 c-34 -26 -181 -143 -328 -260 l-267 -213 350 -250 351
-249 330 266 330 265 -343 241 c-189 132 -347 242 -353 244 -5 2 -37 -18 -70
-44z m382 -218 c169 -118 309 -218 310 -222 4 -9 -575 -477 -589 -477 -14 0
-628 439 -625 447 3 10 580 468 589 468 4 0 145 -97 315 -216z"/>
<path d="M4120 16569 c-491 -24 -948 -198 -1335 -509 -109 -87 -316 -296 -396
-400 -65 -83 -189 -264 -189 -275 0 -3 103 -5 230 -5 l229 0 55 69 c81 101
248 264 351 341 384 288 791 414 1290 397 585 -20 1102 -275 1474 -729 l64
-78 223 0 224 0 -37 61 c-128 205 -416 518 -614 666 -460 344 -959 491 -1569
462z"/>
<path d="M17426 15699 c-3 -13 -26 -170 -52 -350 l-46 -325 219 -308 c120
-169 219 -302 220 -294 9 48 93 669 93 687 0 13 -87 144 -202 304 -238 333
-225 318 -232 286z m222 -311 l192 -270 -41 -302 c-22 -165 -44 -309 -48 -320
-6 -15 -48 39 -202 258 l-196 276 46 315 c25 173 47 315 50 314 4 0 93 -122
199 -271z"/>
<path d="M2002 14943 c-70 -218 -101 -407 -109 -670 l-6 -193 192 0 191 0 0
104 c0 264 56 557 149 775 17 40 31 75 31 77 0 2 -94 4 -208 4 l-208 0 -32
-97z"/>
<path d="M3500 14978 c-215 -212 -330 -488 -330 -794 l0 -104 1099 0 1100 0 3
29 3 30 150 -107 150 -108 295 238 c342 276 307 270 309 51 l1 -133 3275 0
3275 0 0 108 c0 174 -47 305 -155 431 -66 77 -129 126 -220 171 -195 95 -413
90 -615 -16 -124 -65 -253 -212 -301 -346 l-22 -58 -2433 0 -2434 0 -4 23 c-2
12 -12 80 -21 151 -18 136 -69 356 -103 441 l-20 50 -202 3 c-161 2 -201 0
-197 -10 75 -177 152 -433 145 -486 -3 -21 -23 -9 -233 139 -126 89 -264 185
-306 215 l-75 53 -181 -144 -181 -143 -13 27 c-39 77 -127 197 -198 269 l-81
82 -708 0 -708 0 -64 -62z m2458 -303 c166 -115 301 -214 301 -220 0 -5 -59
-58 -132 -116 -73 -58 -204 -165 -293 -236 l-160 -131 -150 107 -149 107 -2
49 c-5 97 -24 205 -53 297 -16 51 -26 96 -22 100 58 54 339 265 348 260 6 -4
147 -101 312 -217z"/>
<path d="M2050 13308 c38 -100 151 -313 218 -413 l67 -100 249 -3 248 -2 -53
57 c-105 115 -233 302 -308 451 l-31 62 -205 0 -205 0 20 -52z"/>
<path d="M3550 13355 c0 -7 182 -131 225 -153 73 -36 219 -81 317 -96 245 -40
508 4 710 117 65 36 188 123 188 132 0 3 -324 5 -720 5 -396 0 -720 -2 -720
-5z"/>
<path d="M6060 13263 c-70 -134 -169 -279 -262 -384 l-79 -89 244 0 245 0 50
73 c61 88 191 334 226 430 l26 67 -199 0 -199 0 -52 -97z"/>
<path d="M14719 13298 c-75 -73 -163 -182 -205 -253 -37 -60 -104 -216 -104
-239 0 -15 87 -16 1100 -16 605 0 1100 2 1100 5 0 17 -65 178 -91 224 -47 85
-135 198 -211 274 l-68 67 -729 0 -728 0 -64 -62z"/>
<path d="M12009 13008 c-172 -137 -320 -256 -327 -263 -11 -10 47 -56 333
-259 190 -136 350 -246 355 -244 24 8 650 521 645 528 -4 7 -368 264 -666 471
l-25 18 -315 -251z m645 -27 l308 -215 -23 -19 c-382 -310 -569 -459 -574
-459 -13 0 -634 446 -629 452 42 42 592 466 599 462 6 -3 149 -102 319 -221z"/>
<path d="M9750 13219 c-268 -30 -545 -165 -742 -361 l-63 -63 138 -3 138 -3
62 45 c178 126 376 188 607 189 240 0 426 -55 617 -184 l72 -49 133 0 132 0
-64 66 c-269 275 -643 407 -1030 363z"/>
<path d="M4120 11595 l0 -95 150 0 150 0 0 95 0 95 -150 0 -150 0 0 -95z"/>
<path d="M6550 11595 l95 -95 265 0 265 0 -95 95 -95 95 -265 0 -265 0 95 -95z"/>
<path d="M8670 11676 c0 -8 11 -51 25 -95 l26 -81 110 0 110 0 -14 28 c-8 15
-25 57 -37 95 l-23 67 -98 0 c-80 0 -99 -3 -99 -14z"/>
<path d="M9417 11659 c10 -17 46 -60 79 -95 l61 -64 544 0 544 0 -95 95 -95
95 -528 0 -528 0 18 -31z"/>
<path d="M10896 11608 c-15 -46 -30 -89 -33 -96 -4 -10 18 -12 103 -10 l109 3
21 60 c12 33 25 75 29 93 l7 32 -105 0 -105 0 -26 -82z"/>
<path d="M14683 11670 c19 -28 122 -117 168 -146 l39 -24 623 0 624 0 49 37
c77 58 164 134 164 144 0 5 -348 9 -841 9 -838 0 -840 0 -826 -20z"/>
<path d="M16313 10875 c-56 -28 -95 -77 -112 -140 -7 -27 -11 -255 -11 -682
l0 -643 182 0 181 0 -6 348 c-6 308 -14 458 -32 572 -4 26 6 11 38 -55 64
-131 401 -739 440 -794 46 -63 97 -91 170 -91 62 0 99 14 134 52 54 57 53 44
53 763 l0 665 -176 0 -176 0 5 -377 c4 -208 9 -394 13 -413 3 -21 -27 31 -74
125 -112 222 -282 525 -330 589 -77 102 -193 133 -299 81z"/>
<path d="M12274 10875 c-237 -51 -435 -217 -537 -447 -79 -178 -76 -425 8
-602 102 -215 290 -373 511 -431 85 -22 262 -20 356 4 249 64 448 260 530 521
19 64 23 96 23 215 0 119 -4 151 -23 215 -83 266 -284 458 -544 520 -97 23
-232 25 -324 5z m277 -370 c209 -74 306 -339 202 -552 -36 -73 -125 -155 -200
-183 -81 -31 -197 -25 -274 13 -75 36 -146 109 -183 187 -29 61 -31 73 -31
175 0 101 2 114 29 167 88 174 280 255 457 193z"/>
<path d="M14985 10876 c-254 -58 -467 -251 -549 -496 -164 -492 195 -1000 706
-1000 168 0 304 42 434 135 127 91 242 262 286 422 29 112 30 289 0 396 -73
260 -273 465 -518 533 -81 22 -282 28 -359 10z m220 -357 c119 -22 204 -90
262 -207 36 -72 38 -81 37 -171 0 -125 -24 -189 -102 -272 -77 -84 -134 -111
-242 -117 -112 -5 -178 18 -258 93 -72 67 -108 131 -124 223 -23 135 14 255
109 350 55 55 114 87 186 101 60 12 66 12 132 0z"/>
<path d="M11180 10865 c-8 -2 -49 -9 -90 -15 -172 -28 -301 -98 -424 -231
-123 -133 -180 -285 -180 -479 0 -138 17 -210 76 -330 34 -68 61 -103 133
-176 75 -76 105 -98 175 -132 132 -63 276 -91 458 -92 l102 0 0 168 0 169
-107 6 c-237 15 -362 77 -430 216 -26 52 -28 65 -28 171 1 96 5 123 22 162 66
144 216 217 446 218 l97 0 0 175 0 175 -117 -1 c-65 -1 -125 -3 -133 -4z"/>
<path d="M13470 10336 c0 -316 4 -555 10 -586 29 -152 119 -259 263 -311 56
-20 86 -23 295 -27 l232 -4 0 170 0 170 -173 4 c-188 3 -207 9 -244 65 -17 25
-18 70 -21 540 l-3 513 -180 0 -179 0 0 -534z"/>
<path d="M8070 10180 l0 -620 -95 0 -95 0 0 -100 0 -100 1100 0 1100 0 0 100
0 100 -95 0 -95 0 0 620 0 620 -910 0 -910 0 0 -620z"/>
<path d="M2570 10610 l0 -170 155 0 155 0 0 -560 0 -560 180 0 180 0 0 560 0
560 155 0 155 0 0 170 0 170 -490 0 -490 0 0 -170z"/>
<path d="M4416 10769 c-158 -21 -265 -63 -381 -152 -188 -144 -283 -354 -273
-600 9 -187 70 -335 193 -462 156 -160 313 -221 603 -232 l142 -6 0 166 0 165
-97 6 c-163 11 -287 48 -358 109 -17 14 -43 48 -59 76 l-27 51 270 0 271 0 0
165 0 165 -265 0 c-146 0 -265 4 -265 8 0 15 56 87 90 115 75 63 169 93 333
103 l107 7 0 163 0 164 -107 -1 c-60 -1 -139 -6 -177 -10z"/>
<path d="M5608 10765 c-233 -37 -408 -142 -523 -315 -82 -124 -116 -241 -116
-400 0 -247 114 -464 313 -596 127 -85 322 -134 531 -134 l97 0 0 168 0 169
-102 6 c-243 14 -369 78 -434 220 -26 56 -29 73 -29 167 0 99 2 109 33 172 68
139 187 199 422 214 l110 7 0 168 0 169 -107 -1 c-60 -1 -147 -7 -195 -14z"/>
<path d="M6190 10050 l0 -730 185 0 185 0 0 295 0 295 185 0 185 0 0 -295 0
-295 185 0 185 0 0 730 0 730 -185 0 -185 0 0 -260 0 -260 -185 0 -185 0 0
260 0 260 -185 0 -185 0 0 -730z"/>
<path d="M1285 9385 c-176 -140 -321 -258 -322 -262 -3 -8 683 -499 693 -497
8 2 643 515 649 524 4 7 -677 490 -692 490 -4 0 -152 -115 -328 -255z m655
-15 c168 -117 306 -214 308 -215 1 -1 -125 -105 -280 -230 -156 -125 -290
-234 -299 -242 -14 -12 -56 15 -333 213 -175 124 -316 227 -314 229 1 2 136
109 298 238 164 130 299 231 305 227 6 -4 147 -103 315 -220z"/>
<path d="M12804 8924 c-38 -31 -179 -144 -314 -251 -135 -108 -251 -201 -258
-208 -11 -10 15 -33 144 -124 l158 -111 -55 0 c-98 0 -180 -55 -231 -154 -30
-57 -30 -165 0 -222 33 -64 68 -100 124 -128 127 -63 281 -9 343 120 26 53 31
151 12 209 -11 31 -12 43 -4 38 7 -5 29 -19 50 -33 l37 -25 0 -272 0 -273 80
0 80 0 0 251 0 250 38 34 c70 65 142 34 142 -62 0 -34 -6 -50 -26 -70 -23 -22
-32 -25 -80 -21 l-55 5 3 -86 3 -86 55 -3 c74 -4 131 13 180 55 66 57 85 103
85 208 0 99 -12 134 -67 192 -17 17 -27 36 -24 41 3 6 34 32 69 57 34 26 113
88 175 138 88 72 110 94 100 103 -15 14 -686 484 -691 484 -2 0 -35 -25 -73
-56z m393 -219 c170 -119 308 -218 308 -220 0 -2 -45 -40 -100 -85 -55 -45
-130 -106 -166 -136 -60 -49 -69 -53 -93 -44 -15 5 -53 10 -84 10 -93 0 -184
-54 -225 -132 l-14 -28 -269 191 c-148 105 -270 192 -271 193 -6 5 586 466
598 466 5 0 147 -97 316 -215z m-649 -671 c32 -36 31 -102 -3 -138 -21 -23
-32 -27 -67 -24 -52 4 -83 40 -83 99 0 34 6 46 34 71 27 24 39 29 65 24 17 -3
41 -17 54 -32z"/>
<path d="M4925 8425 c-36 -35 -35 -102 1 -139 77 -76 204 21 152 117 -18 35
-40 46 -86 47 -32 0 -49 -6 -67 -25z"/>
<path d="M6835 8426 c-35 -35 -42 -72 -21 -111 32 -59 95 -71 145 -29 42 35
44 98 5 138 -36 35 -95 36 -129 2z"/>
<path d="M9240 8430 c-36 -3 -79 -14 -96 -23 -43 -22 -82 -71 -88 -110 -3 -18
-7 -157 -10 -309 l-5 -278 84 0 85 0 0 180 0 180 75 0 75 0 0 75 0 75 -75 0
c-58 0 -75 3 -75 14 0 31 30 46 91 46 l59 0 0 80 0 80 -27 -1 c-16 -1 -57 -5
-93 -9z"/>
<path d="M4360 8345 l0 -85 80 0 80 0 0 -275 0 -275 95 0 95 0 0 275 0 275 75
0 75 0 0 85 0 85 -250 0 -250 0 0 -85z"/>
<path d="M6560 8070 l0 -360 85 0 85 0 0 360 0 360 -85 0 -85 0 0 -360z"/>
<path d="M9700 8268 c0 -91 3 -253 7 -361 l6 -197 89 0 88 0 0 270 0 270 35 0
c20 0 53 -9 74 -20 154 -78 120 -312 -48 -339 l-36 -6 -3 -89 -3 -89 60 6
c122 11 231 89 288 205 24 50 27 69 28 152 0 84 -3 101 -28 152 -35 71 -104
140 -176 176 -53 25 -65 27 -218 31 l-163 3 0 -164z"/>
<path d="M11990 8070 l0 -360 85 0 85 0 0 360 0 360 -85 0 -85 0 0 -360z"/>
<path d="M15328 8113 c1 -131 5 -252 8 -270 13 -80 97 -132 212 -133 l72 0 0
75 0 75 -49 0 c-72 0 -81 13 -81 121 l0 89 65 0 65 0 0 75 0 75 -65 0 -65 0 0
65 0 65 -82 0 -83 0 3 -237z"/>
<path d="M4910 7970 l0 -260 85 0 85 0 0 260 0 260 -85 0 -85 0 0 -260z"/>
<path d="M5285 8213 c-44 -23 -74 -53 -98 -98 -19 -36 -22 -60 -25 -222 l-4
-183 86 0 86 0 0 163 c0 146 2 166 18 180 23 21 51 22 80 1 21 -15 22 -21 22
-180 l0 -164 79 0 79 0 4 159 c3 139 5 162 22 180 24 26 67 27 89 3 14 -16 17
-44 17 -180 l0 -162 86 0 87 0 -6 168 c-6 190 -13 222 -62 279 -68 79 -189 96
-275 39 l-42 -28 -22 21 c-11 11 -34 24 -49 30 -41 16 -137 13 -172 -6z"/>
<path d="M6125 8211 c-49 -22 -108 -80 -131 -130 -29 -58 -30 -157 -4 -220 27
-61 105 -136 158 -151 64 -17 142 -12 197 14 52 24 122 92 149 145 l16 31 -61
31 -61 31 -30 -36 c-62 -76 -138 -88 -194 -32 -30 30 -34 40 -34 86 0 46 4 56
34 86 26 26 42 34 69 34 20 0 38 -4 42 -9 3 -6 -22 -28 -55 -51 -33 -22 -60
-43 -60 -46 0 -3 14 -25 31 -50 18 -27 35 -42 42 -38 10 6 224 151 236 160 6
5 -37 68 -66 96 -68 65 -194 88 -278 49z"/>
<path d="M7193 8205 c-54 -27 -97 -78 -113 -136 -6 -19 -10 -107 -10 -196 l0
-163 80 0 80 0 0 154 c0 140 2 156 21 180 25 32 70 35 99 6 18 -18 20 -33 20
-180 l0 -160 85 0 85 0 0 153 c0 222 -25 288 -132 341 -70 35 -145 35 -215 1z"/>
<path d="M7772 8217 c-45 -14 -118 -81 -144 -130 -47 -93 -31 -215 39 -297
127 -148 362 -108 457 77 l16 33 -60 30 -60 30 -48 -50 c-44 -46 -52 -50 -95
-50 -37 0 -53 6 -77 28 -55 48 -51 146 8 192 24 20 96 28 105 13 3 -5 -24 -28
-59 -52 l-64 -44 22 -39 c12 -22 28 -44 34 -49 9 -7 46 13 131 72 65 44 119
83 121 84 2 2 -3 17 -12 33 -22 42 -102 110 -145 122 -45 12 -126 11 -169 -3z"/>
<path d="M8614 8206 c-60 -28 -117 -91 -138 -154 -61 -177 76 -362 258 -350
155 10 256 127 244 282 -16 188 -197 300 -364 222z m166 -171 c54 -58 21 -157
-54 -163 -47 -4 -83 25 -92 75 -18 94 83 155 146 88z"/>
<path d="M10495 8211 c-49 -22 -108 -80 -131 -130 -10 -20 -20 -66 -22 -102
-5 -84 22 -152 85 -210 59 -54 98 -69 181 -69 112 0 199 55 253 161 11 23 19
42 17 44 -2 2 -30 15 -62 29 l-59 26 -30 -35 c-61 -75 -137 -87 -193 -31 -30
30 -34 40 -34 86 0 46 4 56 34 86 26 26 42 34 69 34 20 0 38 -4 42 -9 3 -6
-22 -28 -55 -51 -33 -22 -60 -43 -60 -46 0 -3 14 -25 31 -50 18 -27 35 -42 42
-38 10 6 224 151 236 160 6 5 -37 68 -66 96 -68 65 -194 88 -278 49z"/>
<path d="M11555 8211 c-49 -22 -108 -80 -131 -130 -29 -58 -30 -157 -4 -220
27 -61 105 -136 158 -151 64 -17 142 -12 197 14 52 24 122 92 149 145 l16 31
-61 31 -61 31 -30 -36 c-62 -76 -138 -88 -194 -32 -30 30 -34 40 -34 86 0 46
4 56 34 86 26 26 42 34 69 34 20 0 38 -4 42 -9 3 -6 -22 -28 -55 -51 -33 -22
-60 -43 -60 -46 0 -3 14 -25 31 -50 18 -27 35 -42 42 -38 10 6 224 151 236
160 6 5 -37 68 -66 96 -68 65 -194 88 -278 49z"/>
<path d="M13495 8207 c-46 -26 -99 -106 -109 -164 -3 -21 -6 -104 -6 -185 l0
-148 79 0 80 0 3 159 c3 140 5 162 22 180 24 26 60 27 86 1 18 -18 20 -33 20
-180 l0 -160 85 0 85 0 0 164 c0 159 1 165 22 180 30 21 54 20 78 -4 18 -18
20 -33 20 -180 l0 -160 86 0 86 0 -4 173 c-3 170 -4 175 -33 233 -26 51 -38
63 -84 87 -84 42 -184 36 -237 -14 -15 -14 -24 -17 -29 -10 -3 6 -24 20 -45
31 -56 29 -152 27 -205 -3z"/>
<path d="M14335 8209 c-95 -47 -145 -131 -145 -243 0 -88 24 -139 92 -201 55
-50 97 -65 178 -65 96 0 204 72 254 169 l16 31 -61 31 -61 31 -30 -36 c-62
-76 -138 -88 -194 -32 -28 28 -34 41 -34 78 0 79 62 140 126 124 27 -7 26 -8
-27 -46 -30 -22 -57 -40 -61 -40 -13 0 -9 -29 6 -47 8 -10 23 -28 33 -41 l18
-23 120 82 c66 45 122 83 123 85 2 1 -8 23 -22 47 -27 45 -78 87 -129 106 -47
18 -157 13 -202 -10z"/>
<path d="M14900 8208 c-55 -30 -104 -99 -119 -168 -6 -28 -11 -114 -11 -190
l0 -140 85 0 85 0 0 160 c0 147 2 162 20 180 27 27 74 26 100 -2 18 -20 20
-35 20 -180 l0 -158 86 0 87 0 -5 173 c-4 171 -4 174 -35 228 -43 77 -103 113
-197 117 -60 3 -78 0 -116 -20z"/>
<path d="M6810 7965 l0 -255 85 0 85 0 0 255 0 255 -85 0 -85 0 0 -255z"/>
<path d="M10890 8153 c27 -94 118 -360 135 -394 22 -41 54 -59 105 -59 53 0
83 18 107 63 9 18 46 127 83 242 l66 210 -74 3 c-42 2 -80 1 -86 -1 -6 -3 -29
-73 -51 -156 -22 -83 -42 -151 -45 -151 -3 0 -23 70 -45 155 l-40 155 -87 0
-87 0 19 -67z"/>
<path d="M17575 7829 c-422 -335 -495 -394 -495 -400 0 -8 15 -19 401 -295
327 -233 292 -214 326 -182 15 14 161 133 323 263 162 131 296 240 297 244 2
6 -676 483 -693 487 -5 2 -76 -51 -159 -117z m472 -145 c169 -118 309 -219
311 -223 2 -7 -436 -370 -550 -454 l-38 -28 -312 222 c-172 122 -315 224 -318
226 -3 3 2 8 10 13 8 5 141 110 295 234 154 123 283 225 287 225 4 1 145 -96
315 -215z"/>
<path d="M2126 4156 c-126 -195 -229 -357 -228 -361 1 -8 535 -633 542 -634 5
-1 462 692 468 710 3 7 -532 630 -547 636 -3 2 -109 -156 -235 -351z m488 7
c135 -156 246 -287 246 -292 0 -6 -95 -154 -211 -330 l-211 -320 -248 289
-249 290 186 288 c102 158 197 304 210 325 14 22 26 37 27 35 2 -1 114 -130
250 -285z"/>
<path d="M7440 4227 c-179 -143 -326 -262 -327 -266 -2 -7 686 -497 696 -495
11 3 650 519 651 526 0 3 -156 116 -347 250 l-348 244 -325 -259z m654 -18
c290 -202 305 -214 288 -231 -9 -9 -143 -118 -296 -242 -168 -136 -284 -222
-291 -218 -6 4 -150 105 -318 225 l-307 219 252 200 c139 110 271 216 293 234
22 19 47 32 56 30 9 -2 154 -99 323 -217z"/>
<path d="M18543 2358 l-330 -263 345 -245 c189 -135 349 -245 356 -245 6 0
156 117 334 260 l323 260 -23 19 c-13 10 -165 117 -338 239 -173 121 -320 224
-326 229 -8 5 -126 -83 -341 -254z m675 -26 l291 -204 -32 -27 c-188 -161
-561 -452 -573 -447 -13 5 -594 415 -617 436 -5 4 125 114 289 244 l297 236
27 -17 c15 -10 158 -110 318 -221z"/>
<path d="M11085 916 c-227 -183 -291 -229 -293 -215 -3 17 -14 19 -133 19
l-129 0 0 -45 0 -45 40 0 40 0 0 -150 0 -150 50 0 49 0 3 150 3 151 35 -26
c19 -15 41 -30 48 -34 12 -7 11 -16 -2 -53 -32 -95 31 -188 127 -188 42 0 70
12 103 42 19 17 25 18 43 6 12 -7 21 -21 21 -30 0 -12 8 -18 23 -18 14 0 83
-42 165 -101 90 -63 146 -98 154 -93 7 4 79 61 160 127 l148 119 35 -22 c21
-13 59 -24 95 -27 l60 -6 0 47 c0 43 -2 46 -27 46 -16 1 -41 6 -57 13 l-28 12
73 58 74 59 3 -116 3 -116 39 0 40 0 0 53 c0 61 14 117 32 129 7 4 23 8 36 8
19 0 22 5 22 45 0 40 -2 45 -23 45 -12 0 -33 -7 -45 -16 -20 -14 -22 -14 -22
0 0 9 -6 16 -12 16 -7 1 0 11 16 24 l28 24 -98 69 c-330 232 -603 423 -606
422 -2 0 -133 -105 -293 -233z m580 -11 l257 -180 -58 -7 c-137 -18 -212 -131
-170 -259 10 -28 16 -52 14 -54 -2 -1 -65 -53 -141 -114 -80 -65 -145 -110
-153 -107 -7 3 -63 40 -124 83 l-110 77 0 72 c0 88 5 104 36 104 33 0 44 -28
44 -114 l0 -76 40 0 40 0 0 95 c0 109 -13 146 -60 170 -42 22 -92 19 -131 -8
-38 -26 -58 -70 -58 -136 -1 -42 -2 -44 -18 -27 -10 10 -33 27 -52 38 l-34 20
31 20 c18 11 32 23 32 27 0 4 -15 22 -34 40 -39 38 -99 51 -145 31 -25 -10
-33 -9 -56 6 -25 17 -26 18 -8 35 10 10 143 117 297 238 176 140 283 218 291
213 6 -4 128 -88 270 -187z m243 -338 c-118 -96 -134 -99 -124 -27 7 46 44 77
101 85 l45 7 0 44 0 44 44 -31 44 -32 -110 -90z m-963 -37 c-3 -5 -12 -7 -20
-3 -21 7 -19 13 6 13 11 0 18 -4 14 -10z m-50 -41 c0 -8 5 -22 11 -33 9 -15
15 -16 31 -7 16 8 24 7 33 -4 10 -12 8 -16 -14 -25 -31 -11 -70 1 -80 25 -11
29 -7 67 6 63 7 -3 13 -11 13 -19z"/>
<path d="M11470 603 c-45 -17 -90 -83 -90 -133 0 -134 173 -188 251 -78 76
106 -39 256 -161 211z m86 -108 c15 -23 15 -27 0 -50 -36 -55 -105 -10 -78 50
8 17 20 25 37 25 15 0 31 -9 41 -25z"/>
<path d="M8120 589 c0 -72 -5 -139 -10 -150 -15 -27 -56 -24 -76 6 -15 23 -15
27 0 50 11 17 26 25 46 25 29 0 30 2 30 45 l0 45 -37 0 c-68 0 -129 -53 -134
-115 -5 -63 2 -86 34 -121 64 -70 180 -54 218 30 15 33 19 66 19 179 l0 137
-45 0 -45 0 0 -131z"/>
<path d="M9457 704 c-15 -8 -32 -26 -37 -40 -6 -14 -10 -95 -10 -180 l0 -154
45 0 45 0 0 100 0 100 40 0 40 0 0 40 0 40 -41 0 c-52 0 -48 24 4 28 36 3 37
4 37 43 l0 39 -47 0 c-27 -1 -61 -8 -76 -16z"/>
<path d="M9950 525 l0 -195 45 0 44 0 3 93 3 92 30 0 30 0 3 -92 3 -93 44 0
45 0 0 90 c0 142 -36 199 -120 187 l-40 -5 0 59 0 59 -45 0 -45 0 0 -195z"/>
<path d="M8760 541 c0 -71 4 -141 10 -155 11 -31 58 -56 105 -56 34 0 35 1 35
39 0 36 -3 40 -27 43 -27 3 -28 6 -31 61 l-3 57 31 0 c28 0 30 2 30 40 0 38
-2 40 -30 40 -27 0 -30 3 -30 30 0 29 -2 30 -45 30 l-45 0 0 -129z"/>
<path d="M9750 558 c0 -62 5 -130 10 -150 14 -51 52 -78 106 -78 l44 0 0 40
c0 33 -3 40 -19 40 -43 0 -51 10 -51 66 l0 54 35 0 c34 0 35 1 35 40 0 39 -1
40 -35 40 -32 0 -35 2 -35 30 0 29 -2 30 -45 30 l-45 0 0 -112z"/>
<path d="M7193 590 c-55 -33 -63 -61 -63 -230 l0 -150 40 0 40 0 0 133 c0 104
3 137 16 155 36 51 102 5 76 -53 -9 -20 -19 -25 -47 -25 l-36 0 3 -42 c3 -42
4 -43 41 -46 72 -6 137 60 137 138 0 107 -117 175 -207 120z"/>
<path d="M7440 470 l0 -140 39 0 39 0 4 81 c4 87 17 109 65 109 21 0 23 5 23
45 0 40 -2 45 -23 45 -12 0 -33 -7 -45 -16 -20 -14 -22 -14 -22 0 0 12 -10 16
-40 16 l-40 0 0 -140z"/>
<path d="M7703 591 c-39 -25 -66 -73 -66 -121 0 -126 143 -185 231 -96 34 34
37 41 37 96 0 55 -3 62 -37 96 -46 47 -114 57 -165 25z m111 -93 c26 -43 -31
-99 -70 -68 -17 15 -18 62 -2 78 17 17 58 11 72 -10z"/>
<path d="M8250 516 c0 -80 3 -98 23 -127 47 -69 124 -80 185 -25 l37 34 3 106
4 106 -46 0 -45 0 -3 -92 -3 -93 -30 0 -30 0 -3 93 -3 92 -44 0 -45 0 0 -94z"/>
<path d="M8610 591 c-52 -28 -72 -61 -72 -119 0 -86 60 -142 152 -142 l41 0
-3 43 c-3 40 -5 42 -38 45 -45 5 -60 18 -60 52 0 34 15 47 60 52 33 3 35 5 38
46 l3 42 -43 0 c-24 0 -59 -8 -78 -19z"/>
<path d="M9166 591 c-43 -29 -66 -70 -66 -121 0 -138 179 -193 250 -77 41 67
16 168 -49 202 -41 20 -100 19 -135 -4z m102 -83 c7 -7 12 -24 12 -38 0 -31
-17 -50 -45 -50 -28 0 -45 19 -45 50 0 31 17 50 45 50 12 0 26 -5 33 -12z"/>
<path d="M10299 587 c-45 -30 -71 -82 -65 -130 16 -137 194 -174 266 -55 l20
33 -33 17 c-31 16 -33 16 -47 -2 -41 -52 -113 -40 -118 19 -4 40 21 71 57 71
l26 -1 -34 -28 c-30 -24 -32 -30 -22 -49 6 -12 15 -22 18 -22 4 0 35 19 70 41
60 39 63 43 50 63 -42 64 -128 84 -188 43z"/>
<path d="M12236 591 c-116 -76 -69 -261 67 -261 47 0 87 20 121 61 31 37 30
50 -7 63 -22 8 -31 6 -49 -11 -38 -35 -64 -37 -93 -9 -14 14 -25 34 -25 46 0
27 35 60 63 60 20 -1 20 -3 -11 -29 -30 -26 -32 -31 -20 -50 7 -11 16 -21 21
-21 12 0 127 80 127 88 0 4 -7 18 -16 30 -36 51 -125 68 -178 33z"/>
<path d="M12480 515 c0 -109 13 -146 60 -170 37 -19 73 -19 111 0 27 14 32 14
51 0 29 -19 87 -19 116 1 40 28 52 66 52 169 l0 95 -40 0 -40 0 0 -82 c0 -94
-7 -111 -41 -106 -23 3 -24 7 -27 96 l-3 92 -44 0 -44 0 -3 -92 -3 -93 -27 -3
-28 -3 0 95 0 96 -45 0 -45 0 0 -95z"/>
</g>
</svg>
